Coordinates
version=1
nRows=4
nColumns=124
inDegrees=yes

Units are S.I. units (second, meters, Newtons, ...)
If the header above contains a line with 'inDegrees', this indicates whether rotational values are in degrees (yes) or radians (no).

endheader 
time	pelvis_tilt	pelvis_list	pelvis_rotation	pelvis_tx	pelvis_ty	pelvis_tz	hip_flexion_l	hip_adduction_l	hip_rotation_l	hip_flexion_r	hip_adduction_r	hip_rotation_r	knee_angle_l	knee_angle_r	ankle_angle_l	ankle_angle_r	subtalar_angle_l	subtalar_angle_r	mtp_angle_l	mtp_angle_r	lumbar_extension	lumbar_bending	lumbar_rotation	arm_flex_l	arm_add_l	arm_rot_l	arm_flex_r	arm_add_r	arm_rot_r	elbow_flex_l	elbow_flex_r	glut_med1_l/activation	glut_med2_l/activation	glut_med3_l/activation	glut_min1_l/activation	glut_min2_l/activation	glut_min3_l/activation	semimem_l/activation	semiten_l/activation	bifemlh_l/activation	bifemsh_l/activation	sar_l/activation	add_long_l/activation	add_brev_l/activation	add_mag1_l/activation	add_mag2_l/activation	add_mag3_l/activation	tfl_l/activation	pect_l/activation	grac_l/activation	glut_max1_l/activation	glut_max2_l/activation	glut_max3_l/activation	iliacus_l/activation	psoas_l/activation	quad_fem_l/activation	gem_l/activation	peri_l/activation	rect_fem_l/activation	vas_med_l/activation	vas_int_l/activation	vas_lat_l/activation	med_gas_l/activation	lat_gas_l/activation	soleus_l/activation	tib_post_l/activation	flex_dig_l/activation	flex_hal_l/activation	tib_ant_l/activation	per_brev_l/activation	per_long_l/activation	per_tert_l/activation	ext_dig_l/activation	ext_hal_l/activation	ercspn_l/activation	intobl_l/activation	extobl_l/activation	glut_med1_r/activation	glut_med2_r/activation	glut_med3_r/activation	glut_min1_r/activation	glut_min2_r/activation	glut_min3_r/activation	semimem_r/activation	semiten_r/activation	bifemlh_r/activation	bifemsh_r/activation	sar_r/activation	add_long_r/activation	add_brev_r/activation	add_mag1_r/activation	add_mag2_r/activation	add_mag3_r/activation	tfl_r/activation	pect_r/activation	grac_r/activation	glut_max1_r/activation	glut_max2_r/activation	glut_max3_r/activation	iliacus_r/activation	psoas_r/activation	quad_fem_r/activation	gem_r/activation	peri_r/activation	rect_fem_r/activation	vas_med_r/activation	vas_int_r/activation	vas_lat_r/activation	med_gas_r/activation	lat_gas_r/activation	soleus_r/activation	tib_post_r/activation	flex_dig_r/activation	flex_hal_r/activation	tib_ant_r/activation	per_brev_r/activation	per_long_r/activation	per_tert_r/activation	ext_dig_r/activation	ext_hal_r/activation	ercspn_r/activation	intobl_r/activation	extobl_r/activation	
          0.80802583	         -3.15111396	         -2.80228800	        -12.30465423	          0.57840796	          0.99803473	          0.01520017	         25.10761721	         -4.21782579	         -0.97138940	        -11.29517445	          2.31408461	         14.65603791	        -19.57849387	        -12.36690304	          3.43018182	          3.75696761	        -14.17775756	         -4.71882601	          0.17511427	         31.79186121	          1.93825055	          4.33294461	         -2.95637439	          9.94588726	        -13.46348028	         19.15749192	         -0.43722522	        -13.46570464	         18.83052720	         21.27781213	         17.51122213	          0.20802019	          0.45444145	          0.32454162	          0.05008456	          0.12016108	          0.09634133	          0.10128937	          0.08122264	          0.13047977	          0.05000556	          0.05001175	          0.05000050	          0.05000156	          0.05000842	          0.05001058	          0.05003272	          0.05002463	          0.05000498	          0.05000396	          0.15816921	          0.26500750	          0.12247108	          0.05000084	          0.05000094	          0.31338825	          0.25671551	          0.29582241	          0.05000234	          0.32888593	          0.37297082	          0.32496312	          0.05000124	          0.05000276	          0.05000065	          0.51884286	          0.26816078	          0.15151648	          0.49008677	          0.05000143	          0.05000060	          0.07883528	          0.59044167	          0.42559869	          0.05000033	          0.11962661	          0.05000026	          0.05000181	          0.05825507	          0.05000696	          0.05000498	          0.05000436	          0.05001145	          0.05139009	          0.11395641	          0.10170607	          0.05000442	          0.05000620	          0.48163159	          0.40965571	          0.05026720	          0.05003575	          0.05010480	          0.05000376	          0.08805189	          0.11636241	          0.05002280	          0.05002529	          0.05007261	          0.05863749	          0.05387110	          0.07308240	          0.05001816	          0.05000445	          0.11343172	          0.20276692	          0.21737616	          0.19116099	          0.31842523	          0.42605894	          0.20682767	          0.51477547	          0.30247248	          0.33752776	          0.05000141	          0.05000700	          0.10409548	          0.05000224	          0.05000064	          0.05000210	          0.13650965	          0.05000023	          0.11118889	
          0.82418634	         -3.14725844	         -3.09834230	        -12.30531415	          0.59151391	          0.99974664	          0.01497559	         24.45870402	         -4.31621382	         -0.89680833	        -11.62257506	          2.54761138	         14.09246107	        -19.90739378	        -13.02822970	          3.80271913	          2.27550598	        -14.76447238	         -4.75311583	          0.31377722	         32.19182573	          2.06928684	          4.06211347	         -2.92466879	          7.40088286	        -13.46345106	         19.33681695	         -0.55657831	        -13.46636035	         18.11490215	         20.21193221	         22.20891753	          0.24172375	          0.48863867	          0.34510036	          0.05090380	          0.13319233	          0.10233396	          0.10704082	          0.08954667	          0.13591510	          0.05000455	          0.05001006	          0.05000048	          0.05000155	          0.05000834	          0.05001083	          0.05006521	          0.05001780	          0.05000475	          0.05000381	          0.16443061	          0.27998833	          0.13536824	          0.05000077	          0.05000085	          0.29465437	          0.26244765	          0.30910953	          0.05000210	          0.33877919	          0.38503412	          0.33008249	          0.05000118	          0.05000267	          0.05000070	          0.54603114	          0.28456638	          0.16953719	          0.46958848	          0.05000131	          0.05000054	          0.06211064	          0.51248877	          0.40001183	          0.05000040	          0.09699870	          0.05000026	          0.05000209	          0.05000151	          0.05000600	          0.05000434	          0.05000384	          0.05001030	          0.05492829	          0.13353978	          0.11728967	          0.05000427	          0.05000561	          0.52579282	          0.46973771	          0.05067347	          0.05003688	          0.05023404	          0.05000431	          0.10293656	          0.13417319	          0.05002207	          0.05002441	          0.05008287	          0.05000190	          0.05000171	          0.06306804	          0.05001563	          0.05000368	          0.08936279	          0.20526769	          0.22124826	          0.19576704	          0.28250504	          0.39337159	          0.17658664	          0.51325976	          0.30801444	          0.34301680	          0.05000127	          0.05001340	          0.10738799	          0.05000220	          0.05000060	          0.05000192	          0.13607182	          0.05000025	          0.12326509	
          0.84034686	         -3.14506901	         -3.41726305	        -12.25328226	          0.60442310	          1.00182157	          0.01468171	         23.72643919	         -4.42289368	         -0.77456446	        -11.93620999	          2.81454877	         13.48758523	        -20.07664736	        -13.65100165	          4.30298870	          0.74622955	        -15.23366548	         -4.78479482	          0.48871202	         32.24089369	          2.18788658	          3.83029448	         -2.87862493	          4.68626647	        -13.46344182	         19.34006999	         -0.89731325	        -13.46514460	         17.25007129	         19.54686006	         27.42842769	          0.26842022	          0.51250650	          0.36227269	          0.05933014	          0.15023150	          0.10891709	          0.11183284	          0.09521552	          0.14046653	          0.05000408	          0.05000924	          0.05000043	          0.05000140	          0.05000774	          0.05001029	          0.05039267	          0.05001840	          0.05000428	          0.05000342	          0.16987410	          0.29008707	          0.14478253	          0.05000071	          0.05000078	          0.26257486	          0.26357889	          0.31853628	          0.05000218	          0.34213063	          0.38831921	          0.32834569	          0.05000107	          0.05000243	          0.05000067	          0.56981359	          0.29825220	          0.18670649	          0.44808966	          0.05000112	          0.05000048	          0.05001003	          0.44929229	          0.37174249	          0.05000036	          0.08145606	          0.05000026	          0.05000181	          0.05000178	          0.05000557	          0.05000401	          0.05000354	          0.05000984	          0.05255143	          0.14599823	          0.12538837	          0.05000504	          0.05000545	          0.55658657	          0.49102520	          0.05074316	          0.05003688	          0.05022924	          0.05000409	          0.11339130	          0.14212666	          0.05002195	          0.05002419	          0.05005991	          0.05000265	          0.05000238	          0.05165424	          0.05001468	          0.05000326	          0.07040110	          0.20238866	          0.21942816	          0.19574170	          0.25252068	          0.36604698	          0.15339208	          0.51031843	          0.31138055	          0.34680236	          0.05000113	          0.05000700	          0.10870220	          0.05000183	          0.05000052	          0.05000169	          0.13454861	          0.05000028	          0.13187857	
          0.85650738	         -3.14400790	         -3.76617514	        -12.14803755	          0.61713281	          1.00414706	          0.01432119	         22.92663942	         -4.54964811	         -0.60702985	        -12.25097013	          3.11862987	         12.84387713	        -20.10683341	        -14.21236996	          4.85633796	         -0.79796646	        -15.59602808	         -4.80089956	          0.68129067	         31.94324538	          2.29491300	          3.64495904	         -2.81669970	          1.87394321	        -13.46343651	         19.30654111	         -1.42368007	        -13.46396672	         16.37369923	         19.15414672	         33.08505594	          0.28557902	          0.52352275	          0.37132361	          0.07114933	          0.15869316	          0.11132057	          0.11568864	          0.09704923	          0.14432165	          0.05000313	          0.05000784	          0.05000042	          0.05000140	          0.05000779	          0.05001066	          0.05141816	          0.05001589	          0.05000411	          0.05000331	          0.16922384	          0.29519143	          0.15516208	          0.05000067	          0.05000073	          0.22402965	          0.26100486	          0.32436641	          0.05000250	          0.34238646	          0.38664347	          0.32287265	          0.05000096	          0.05000218	          0.05000066	          0.58907064	          0.30793021	          0.19998199	          0.43093928	          0.05000107	          0.05000045	          0.05001242	          0.39496690	          0.35020017	          0.05000042	          0.07460668	          0.05000025	          0.05000206	          0.05000152	          0.05000444	          0.05000446	          0.05000351	          0.05000886	          0.05120194	          0.15388221	          0.12712768	          0.05000509	          0.05000541	          0.58113273	          0.51308854	          0.05063957	          0.05003635	          0.05017961	          0.05000414	          0.13150977	          0.13520860	          0.05002040	          0.05002099	          0.05003896	          0.05000296	          0.05000251	          0.05000477	          0.05000909	          0.05000247	          0.05546306	          0.19640771	          0.21435306	          0.19273587	          0.22784092	          0.34244532	          0.13548850	          0.50462721	          0.30946754	          0.34567227	          0.05000108	          0.05000845	          0.11116492	          0.05000176	          0.05000050	          0.05000162	          0.13210199	          0.05000028	          0.13654194	
